<svg id="visual" viewBox="0 0 1200 800" width="1200" height="800" xmlns="http://www.w3.org/2000/svg" xmlns:xlink="http://www.w3.org/1999/xlink" version="1.1"><rect width="1200" height="800" fill="#B9F9EB"></rect><g><g transform="translate(631 149)"><path d="M53 -42.1C64.7 -27.6 67.5 -5.8 62.6 13.6C57.6 33 45 50.1 28.1 58C11.3 66 -9.7 64.9 -26.7 56.4C-43.7 47.8 -56.7 31.9 -60.9 13.8C-65.1 -4.3 -60.6 -24.5 -49 -39C-37.4 -53.5 -18.7 -62.2 1 -63C20.6 -63.8 41.3 -56.6 53 -42.1Z" fill="none" stroke="#f3f3f3" stroke-width="20"></path></g><g transform="translate(154 605)"><path d="M47.7 -39.3C59 -23.9 63.3 -4.3 59.5 14.2C55.8 32.6 44 49.8 27.2 58.8C10.4 67.7 -11.5 68.5 -28.8 60C-46.2 51.6 -59 34 -62.3 15.4C-65.5 -3.1 -59.2 -22.7 -47.2 -38.2C-35.3 -53.7 -17.6 -65.2 0.3 -65.4C18.2 -65.6 36.4 -54.6 47.7 -39.3Z" stroke="#f3f3f3" fill="none" stroke-width="20"></path></g><g transform="translate(582 314)"><path d="M35.7 -28.2C44.9 -17 50 -2.2 47.3 11.4C44.7 25 34.4 37.5 21.4 43.3C8.4 49.1 -7.2 48.3 -19.6 41.9C-31.9 35.4 -41 23.4 -44.3 9.9C-47.5 -3.7 -45 -18.8 -36.7 -29.8C-28.4 -40.8 -14.2 -47.6 -0.4 -47.2C13.3 -46.9 26.6 -39.3 35.7 -28.2Z" stroke="#f3f3f3" fill="none" stroke-width="20"></path></g><g transform="translate(974 535)"><path d="M51.1 -40.9C63.1 -25.8 67.3 -4.7 63 14.4C58.6 33.5 45.6 50.6 28.5 58.6C11.4 66.5 -9.8 65.4 -26.8 56.8C-43.9 48.2 -56.8 32 -60.7 14.1C-64.6 -3.8 -59.5 -23.6 -47.8 -38.6C-36.2 -53.7 -18.1 -64.1 0.7 -64.7C19.6 -65.3 39.2 -56.1 51.1 -40.9Z" stroke="#f3f3f3" fill="none" stroke-width="20"></path></g><g transform="translate(373 195)"><path d="M34.6 -28C43.2 -16.9 47.3 -2.6 44.4 10.1C41.4 22.8 31.5 33.8 18.9 40.3C6.3 46.7 -9 48.6 -21.2 43C-33.3 37.5 -42.4 24.6 -45.5 10.5C-48.7 -3.6 -45.9 -19 -37.3 -30.2C-28.7 -41.3 -14.4 -48.4 -0.7 -47.8C13 -47.3 26 -39.2 34.6 -28Z" stroke="#f3f3f3" fill="none" stroke-width="20"></path></g></g></svg>