<svg id="visual" viewBox="0 0 900 600" width="900" height="600" xmlns="http://www.w3.org/2000/svg" xmlns:xlink="http://www.w3.org/1999/xlink" version="1.1"><rect x="0" y="0" width="900" height="600" fill="#f7c1c1"></rect><defs><linearGradient id="grad1_0" x1="33.3%" y1="0%" x2="100%" y2="100%"><stop offset="20%" stop-color="#fbd0d0" stop-opacity="1"></stop><stop offset="80%" stop-color="#fbd0d0" stop-opacity="1"></stop></linearGradient></defs><defs><linearGradient id="grad1_1" x1="33.3%" y1="0%" x2="100%" y2="100%"><stop offset="20%" stop-color="#fbd0d0" stop-opacity="1"></stop><stop offset="80%" stop-color="#f7c1c1" stop-opacity="1"></stop></linearGradient></defs><defs><linearGradient id="grad2_0" x1="0%" y1="0%" x2="66.7%" y2="100%"><stop offset="20%" stop-color="#fbd0d0" stop-opacity="1"></stop><stop offset="80%" stop-color="#fbd0d0" stop-opacity="1"></stop></linearGradient></defs><defs><linearGradient id="grad2_1" x1="0%" y1="0%" x2="66.7%" y2="100%"><stop offset="20%" stop-color="#f7c1c1" stop-opacity="1"></stop><stop offset="80%" stop-color="#fbd0d0" stop-opacity="1"></stop></linearGradient></defs><g transform="translate(900, 0)"><path d="M0 405.6C-31.1 405.4 -62.2 405.2 -90.3 395.5C-118.3 385.7 -143.2 366.5 -169.2 351.4C-195.2 336.3 -222.2 325.3 -246.3 308.8C-270.4 292.4 -291.6 270.5 -308.8 246.3C-326 222.1 -339.1 195.6 -350.5 168.8C-361.8 142 -371.3 115 -380.2 86.8C-389.1 58.6 -397.4 29.3 -405.6 0L0 0Z" fill="#f9c8c8"></path><path d="M0 202.8C-15.6 202.7 -31.1 202.6 -45.1 197.7C-59.1 192.9 -71.6 183.2 -84.6 175.7C-97.6 168.1 -111.1 162.6 -123.1 154.4C-135.2 146.2 -145.8 135.2 -154.4 123.1C-163 111 -169.6 97.8 -175.2 84.4C-180.9 71 -185.7 57.5 -190.1 43.4C-194.6 29.3 -198.7 14.7 -202.8 0L0 0Z" fill="#fbd0d0"></path></g><g transform="translate(0, 600)"><path d="M0 -405.6C28.9 -396.4 57.8 -387.2 86.6 -379.2C115.3 -371.3 143.8 -364.8 170.1 -353.2C196.3 -341.6 220.3 -325 246.3 -308.8C272.3 -292.6 300.4 -276.9 317.1 -252.9C333.9 -228.9 339.3 -196.7 349.6 -168.3C359.8 -139.9 374.9 -115.3 385.1 -87.9C395.2 -60.5 400.4 -30.2 405.6 0L0 0Z" fill="#f9c8c8"></path><path d="M0 -202.8C14.5 -198.2 28.9 -193.6 43.3 -189.6C57.6 -185.7 71.9 -182.4 85 -176.6C98.2 -170.8 110.1 -162.5 123.1 -154.4C136.1 -146.3 150.2 -138.4 158.6 -126.5C166.9 -114.5 169.7 -98.4 174.8 -84.2C179.9 -70 187.5 -57.7 192.5 -43.9C197.6 -30.2 200.2 -15.1 202.8 0L0 0Z" fill="#fbd0d0"></path></g></svg>