<svg id="visual" viewBox="0 0 900 600" width="900" height="600" xmlns="http://www.w3.org/2000/svg" xmlns:xlink="http://www.w3.org/1999/xlink" version="1.1"><rect x="0" y="0" width="900" height="600" fill="#f7c1c1"></rect><g transform="translate(445.17037644789906 320.0131666221555)"><path d="M160.8 -291.3C196.6 -257.8 205.7 -190.9 218.6 -136.8C231.5 -82.7 248.3 -41.3 255.3 4.1C262.4 49.5 259.8 99 235.2 132.8C210.5 166.7 163.9 184.8 121 202.9C78.1 221 39.1 239 -10.2 256.7C-59.5 274.4 -119 291.8 -160.7 273C-202.4 254.3 -226.4 199.4 -235.8 147.9C-245.2 96.3 -240.1 48.2 -242.7 -1.5C-245.3 -51.2 -255.6 -102.3 -242.8 -148.1C-230.1 -193.8 -194.3 -234.2 -150 -262.8C-105.7 -291.4 -52.8 -308.2 4.8 -316.5C62.5 -324.9 125 -324.8 160.8 -291.3" fill="#F7CACA"></path></g></svg>