<svg id="visual" viewBox="0 0 900 600" width="900" height="600" xmlns="http://www.w3.org/2000/svg" xmlns:xlink="http://www.w3.org/1999/xlink" version="1.1"><rect width="900" height="600" fill="#f7c1c1"></rect><g><g transform="translate(879 585)"><path d="M0 -34.7L30 -17.3L30 17.3L0 34.7L-30 17.3L-30 -17.3Z" fill="#f5cdcd"></path></g><g transform="translate(576 538)"><path d="M0 -29L25.1 -14.5L25.1 14.5L0 29L-25.1 14.5L-25.1 -14.5Z" fill="#f5cdcd"></path></g><g transform="translate(392 35)"><path d="M0 -25L21.7 -12.5L21.7 12.5L0 25L-21.7 12.5L-21.7 -12.5Z" fill="#f5cdcd"></path></g><g transform="translate(379 198)"><path d="M0 -25L21.7 -12.5L21.7 12.5L0 25L-21.7 12.5L-21.7 -12.5Z" fill="#f5cdcd"></path></g><g transform="translate(142 48)"><path d="M0 -30L26 -15L26 15L0 30L-26 15L-26 -15Z" fill="#f5cdcd"></path></g><g transform="translate(119 381)"><path d="M0 -22L19.1 -11L19.1 11L0 22L-19.1 11L-19.1 -11Z" fill="#f5cdcd"></path></g><g transform="translate(598 27)"><path d="M0 -29L25.1 -14.5L25.1 14.5L0 29L-25.1 14.5L-25.1 -14.5Z" fill="#f5cdcd"></path></g><g transform="translate(406 578)"><path d="M0 -25L21.7 -12.5L21.7 12.5L0 25L-21.7 12.5L-21.7 -12.5Z" fill="#f5cdcd"></path></g><g transform="translate(749 133)"><path d="M0 -28L24.2 -14L24.2 14L0 28L-24.2 14L-24.2 -14Z" fill="#f5cdcd"></path></g><g transform="translate(666 225)"><path d="M0 -25L21.7 -12.5L21.7 12.5L0 25L-21.7 12.5L-21.7 -12.5Z" fill="#f5cdcd"></path></g><g transform="translate(740 208)"><path d="M0 -28L24.2 -14L24.2 14L0 28L-24.2 14L-24.2 -14Z" fill="#f5cdcd"></path></g><g transform="translate(678 89)"><path d="M0 -21L18.2 -10.5L18.2 10.5L0 21L-18.2 10.5L-18.2 -10.5Z" fill="#f5cdcd"></path></g></g></svg>