<svg id="visual" viewBox="0 0 900 600" width="900" height="600" xmlns="http://www.w3.org/2000/svg" xmlns:xlink="http://www.w3.org/1999/xlink" version="1.1"><path d="M0 25L10 34C20 43 40 61 60 63C80 65 100 51 120 48C140 45 160 53 180 59C200 65 220 69 240 63C260 57 280 41 300 35C320 29 340 33 360 42C380 51 400 65 420 76C440 87 460 95 480 93C500 91 520 79 540 66C560 53 580 39 600 37C620 35 640 45 660 49C680 53 700 51 720 53C740 55 760 61 780 63C800 65 820 63 840 66C860 69 880 77 890 81L900 85L900 0L890 0C880 0 860 0 840 0C820 0 800 0 780 0C760 0 740 0 720 0C700 0 680 0 660 0C640 0 620 0 600 0C580 0 560 0 540 0C520 0 500 0 480 0C460 0 440 0 420 0C400 0 380 0 360 0C340 0 320 0 300 0C280 0 260 0 240 0C220 0 200 0 180 0C160 0 140 0 120 0C100 0 80 0 60 0C40 0 20 0 10 0L0 0Z" fill="#fadbdb"></path><path d="M0 97L10 99C20 101 40 105 60 98C80 91 100 73 120 72C140 71 160 87 180 96C200 105 220 107 240 106C260 105 280 101 300 100C320 99 340 101 360 102C380 103 400 103 420 106C440 109 460 115 480 118C500 121 520 121 540 109C560 97 580 73 600 74C620 75 640 101 660 113C680 125 700 123 720 123C740 123 760 125 780 127C800 129 820 131 840 133C860 135 880 137 890 138L900 139L900 83L890 79C880 75 860 67 840 64C820 61 800 63 780 61C760 59 740 53 720 51C700 49 680 51 660 47C640 43 620 33 600 35C580 37 560 51 540 64C520 77 500 89 480 91C460 93 440 85 420 74C400 63 380 49 360 40C340 31 320 27 300 33C280 39 260 55 240 61C220 67 200 63 180 57C160 51 140 43 120 46C100 49 80 63 60 61C40 59 20 41 10 32L0 23Z" fill="#f9d5d5"></path><path d="M0 205L10 212C20 219 40 233 60 235C80 237 100 227 120 234C140 241 160 265 180 289C200 313 220 337 240 330C260 323 280 285 300 279C320 273 340 299 360 290C380 281 400 237 420 224C440 211 460 229 480 229C500 229 520 211 540 219C560 227 580 261 600 263C620 265 640 235 660 230C680 225 700 245 720 253C740 261 760 257 780 244C800 231 820 209 840 207C860 205 880 223 890 232L900 241L900 137L890 136C880 135 860 133 840 131C820 129 800 127 780 125C760 123 740 121 720 121C700 121 680 123 660 111C640 99 620 73 600 72C580 71 560 95 540 107C520 119 500 119 480 116C460 113 440 107 420 104C400 101 380 101 360 100C340 99 320 97 300 98C280 99 260 103 240 104C220 105 200 103 180 94C160 85 140 69 120 70C100 71 80 89 60 96C40 103 20 99 10 97L0 95Z" fill="#f8d0d0"></path><path d="M0 349L10 342C20 335 40 321 60 328C80 335 100 363 120 385C140 407 160 423 180 434C200 445 220 451 240 436C260 421 280 385 300 370C320 355 340 361 360 353C380 345 400 323 420 318C440 313 460 325 480 322C500 319 520 301 540 309C560 317 580 351 600 348C620 345 640 305 660 301C680 297 700 329 720 348C740 367 760 373 780 356C800 339 820 299 840 290C860 281 880 303 890 314L900 325L900 239L890 230C880 221 860 203 840 205C820 207 800 229 780 242C760 255 740 259 720 251C700 243 680 223 660 228C640 233 620 263 600 261C580 259 560 225 540 217C520 209 500 227 480 227C460 227 440 209 420 222C400 235 380 279 360 288C340 297 320 271 300 277C280 283 260 321 240 328C220 335 200 311 180 287C160 263 140 239 120 232C100 225 80 235 60 233C40 231 20 217 10 210L0 203Z" fill="#f7caca"></path><path d="M0 481L10 482C20 483 40 485 60 496C80 507 100 527 120 538C140 549 160 551 180 550C200 549 220 545 240 539C260 533 280 525 300 516C320 507 340 497 360 483C380 469 400 451 420 447C440 443 460 453 480 454C500 455 520 447 540 462C560 477 580 515 600 527C620 539 640 525 660 507C680 489 700 467 720 465C740 463 760 481 780 481C800 481 820 463 840 452C860 441 880 437 890 435L900 433L900 323L890 312C880 301 860 279 840 288C820 297 800 337 780 354C760 371 740 365 720 346C700 327 680 295 660 299C640 303 620 343 600 346C580 349 560 315 540 307C520 299 500 317 480 320C460 323 440 311 420 316C400 321 380 343 360 351C340 359 320 353 300 368C280 383 260 419 240 434C220 449 200 443 180 432C160 421 140 405 120 383C100 361 80 333 60 326C40 319 20 333 10 340L0 347Z" fill="#f7c1c1"></path><path d="M0 523L10 528C20 533 40 543 60 553C80 563 100 573 120 578C140 583 160 583 180 583C200 583 220 583 240 580C260 577 280 571 300 563C320 555 340 545 360 541C380 537 400 539 420 544C440 549 460 557 480 556C500 555 520 545 540 548C560 551 580 567 600 573C620 579 640 575 660 565C680 555 700 539 720 541C740 543 760 563 780 566C800 569 820 555 840 545C860 535 880 529 890 526L900 523L900 431L890 433C880 435 860 439 840 450C820 461 800 479 780 479C760 479 740 461 720 463C700 465 680 487 660 505C640 523 620 537 600 525C580 513 560 475 540 460C520 445 500 453 480 452C460 451 440 441 420 445C400 449 380 467 360 481C340 495 320 505 300 514C280 523 260 531 240 537C220 543 200 547 180 548C160 549 140 547 120 536C100 525 80 505 60 494C40 483 20 481 10 480L0 479Z" fill="#f6b9b9"></path><path d="M0 601L10 601C20 601 40 601 60 601C80 601 100 601 120 601C140 601 160 601 180 601C200 601 220 601 240 601C260 601 280 601 300 601C320 601 340 601 360 601C380 601 400 601 420 601C440 601 460 601 480 601C500 601 520 601 540 601C560 601 580 601 600 601C620 601 640 601 660 601C680 601 700 601 720 601C740 601 760 601 780 601C800 601 820 601 840 601C860 601 880 601 890 601L900 601L900 521L890 524C880 527 860 533 840 543C820 553 800 567 780 564C760 561 740 541 720 539C700 537 680 553 660 563C640 573 620 577 600 571C580 565 560 549 540 546C520 543 500 553 480 554C460 555 440 547 420 542C400 537 380 535 360 539C340 543 320 553 300 561C280 569 260 575 240 578C220 581 200 581 180 581C160 581 140 581 120 576C100 571 80 561 60 551C40 541 20 531 10 526L0 521Z" fill="#f5b0b0"></path></svg>