<svg id="visual" viewBox="0 0 1200 800" width="1200" height="800" xmlns="http://www.w3.org/2000/svg" xmlns:xlink="http://www.w3.org/1999/xlink" version="1.1"><rect width="1200" height="800" fill="#B9F9EB"></rect><g><g transform="translate(654 379)"><path d="M30.4 -24.5C37.5 -15.3 40.1 -2.8 37.4 8.4C34.7 19.5 26.8 29.3 16.3 34.6C5.9 39.9 -7 40.7 -17.3 35.8C-27.6 30.9 -35.2 20.3 -37.6 8.8C-40.1 -2.7 -37.4 -15.2 -30.3 -24.5C-23.2 -33.7 -11.6 -39.7 0 -39.7C11.6 -39.7 23.2 -33.8 30.4 -24.5Z" fill="none" stroke="#f3f3f3" stroke-width="20"></path></g><g transform="translate(906 305)"><path d="M25.3 -20.6C31.2 -12.7 33.3 -2.3 31.3 7.3C29.2 17 23 25.9 14.2 30.4C5.5 34.9 -5.7 35 -14.4 30.5C-23.2 26.1 -29.5 17.1 -31.1 7.7C-32.8 -1.7 -29.9 -11.6 -23.9 -19.4C-18 -27.3 -9 -33.1 0.3 -33.3C9.7 -33.6 19.3 -28.4 25.3 -20.6Z" stroke="#f3f3f3" fill="none" stroke-width="20"></path></g></g></svg>