<svg id="visual" viewBox="0 0 900 600" width="900" height="600" xmlns="http://www.w3.org/2000/svg" xmlns:xlink="http://www.w3.org/1999/xlink" version="1.1"><rect width="900" height="600" fill="#b9f9eb"></rect><g><g transform="translate(635 523)"><path d="M96.2 -29.4C108.5 6.3 90.9 53.6 57.5 77.4C24.2 101.2 -25 101.6 -58.3 77.9C-91.7 54.3 -109.2 6.5 -96.9 -29.3C-84.5 -65.2 -42.3 -89.2 -0.1 -89.2C42 -89.1 84 -65 96.2 -29.4Z" fill="none" stroke="#ffffff" stroke-width="20"></path></g><g transform="translate(746 101)"><path d="M68.9 -23.2C78.8 7.8 68.9 44.5 44.7 62.2C20.6 79.9 -17.8 78.6 -44.8 59.5C-71.9 40.3 -87.6 3.4 -78.3 -27C-68.9 -57.4 -34.5 -81.1 -2.5 -80.3C29.6 -79.5 59.1 -54.2 68.9 -23.2Z" fill="none" stroke="#ffffff" stroke-width="20"></path></g><g transform="translate(82 466)"><path d="M80 -24C90.7 7 77.5 47.8 49 68.9C20.4 90 -23.6 91.5 -49.6 71.7C-75.7 52 -83.8 11 -72.6 -20.7C-61.3 -52.4 -30.7 -75 2 -75.6C34.6 -76.2 69.2 -55 80 -24Z" fill="none" stroke="#ffffff" stroke-width="20"></path></g></g></svg>