<svg id="visual" viewBox="0 0 900 600" width="900" height="600" xmlns="http://www.w3.org/2000/svg" xmlns:xlink="http://www.w3.org/1999/xlink" version="1.1"><g stroke-width="1" stroke-linejoin="bevel"><path d="M465 271L469 238L397 208Z" fill="#fff8f9" stroke="#fff8f9"></path><path d="M397 208L382 278L465 271Z" fill="#ffeeef" stroke="#ffeeef"></path><path d="M319 186L324 305L382 278Z" fill="#ffe6e6" stroke="#ffe6e6"></path><path d="M382 278L473 384L465 271Z" fill="#ffe8e9" stroke="#ffe8e9"></path><path d="M397 208L319 186L382 278Z" fill="#ffeaeb" stroke="#ffeaeb"></path><path d="M378 402L473 384L382 278Z" fill="#ffeced" stroke="#ffeced"></path><path d="M465 271L572 317L469 238Z" fill="#ffeced" stroke="#ffeced"></path><path d="M484 80L365 113L397 208Z" fill="#ffeeef" stroke="#ffeeef"></path><path d="M397 208L365 113L319 186Z" fill="#fff0f1" stroke="#fff0f1"></path><path d="M324 305L378 402L382 278Z" fill="#ffe4e4" stroke="#ffe4e4"></path><path d="M473 384L572 317L465 271Z" fill="#ffeced" stroke="#ffeced"></path><path d="M469 238L484 80L397 208Z" fill="#ffe8e9" stroke="#ffe8e9"></path><path d="M562 93L484 80L469 238Z" fill="#fff0f1" stroke="#fff0f1"></path><path d="M324 305L293 379L378 402Z" fill="#ffeeef" stroke="#ffeeef"></path><path d="M199 371L293 379L324 305Z" fill="#ffeaeb" stroke="#ffeaeb"></path><path d="M572 317L603 202L469 238Z" fill="#fff0f1" stroke="#fff0f1"></path><path d="M365 113L264 128L319 186Z" fill="#ffe6e6" stroke="#ffe6e6"></path><path d="M319 186L171 278L324 305Z" fill="#fff6f7" stroke="#fff6f7"></path><path d="M315 0L264 128L365 113Z" fill="#ffeced" stroke="#ffeced"></path><path d="M603 202L562 93L469 238Z" fill="#ffeaeb" stroke="#ffeaeb"></path><path d="M378 402L493 463L473 384Z" fill="#fff8f9" stroke="#fff8f9"></path><path d="M473 384L622 420L572 317Z" fill="#fff6f7" stroke="#fff6f7"></path><path d="M401 518L493 463L378 402Z" fill="#ffeeef" stroke="#ffeeef"></path><path d="M572 317L664 288L603 202Z" fill="#ffe8e9" stroke="#ffe8e9"></path><path d="M603 202L698 188L562 93Z" fill="#fff2f3" stroke="#fff2f3"></path><path d="M677 400L664 288L572 317Z" fill="#ffeced" stroke="#ffeced"></path><path d="M511 0L430 0L484 80Z" fill="#fff2f3" stroke="#fff2f3"></path><path d="M484 80L430 0L365 113Z" fill="#fff6f7" stroke="#fff6f7"></path><path d="M167 170L171 278L319 186Z" fill="#ffeced" stroke="#ffeced"></path><path d="M315 0L210 110L264 128Z" fill="#fff2f3" stroke="#fff2f3"></path><path d="M264 128L167 170L319 186Z" fill="#fff0f1" stroke="#fff0f1"></path><path d="M171 278L199 371L324 305Z" fill="#ffe4e4" stroke="#ffe4e4"></path><path d="M282 521L401 518L378 402Z" fill="#fff6f7" stroke="#fff6f7"></path><path d="M493 463L622 420L473 384Z" fill="#ffe6e6" stroke="#ffe6e6"></path><path d="M562 93L511 0L484 80Z" fill="#fff0f1" stroke="#fff0f1"></path><path d="M210 110L167 170L264 128Z" fill="#fff6f7" stroke="#fff6f7"></path><path d="M282 521L378 402L293 379Z" fill="#ffeaeb" stroke="#ffeaeb"></path><path d="M493 463L633 497L622 420Z" fill="#ffeaeb" stroke="#ffeaeb"></path><path d="M430 0L315 0L365 113Z" fill="#fff6f7" stroke="#fff6f7"></path><path d="M763 267L698 188L664 288Z" fill="#fff6f7" stroke="#fff6f7"></path><path d="M664 288L698 188L603 202Z" fill="#fff0f1" stroke="#fff0f1"></path><path d="M562 93L619 0L511 0Z" fill="#fff6f7" stroke="#fff6f7"></path><path d="M105 419L226 462L199 371Z" fill="#ffeaeb" stroke="#ffeaeb"></path><path d="M199 371L226 462L293 379Z" fill="#ffeced" stroke="#ffeced"></path><path d="M633 497L677 400L622 420Z" fill="#ffe6e6" stroke="#ffe6e6"></path><path d="M622 420L677 400L572 317Z" fill="#ffe6e6" stroke="#ffe6e6"></path><path d="M226 462L282 521L293 379Z" fill="#ffe6e6" stroke="#ffe6e6"></path><path d="M726 93L619 0L562 93Z" fill="#ffe8e9" stroke="#ffe8e9"></path><path d="M538 600L633 497L493 463Z" fill="#ffe4e4" stroke="#ffe4e4"></path><path d="M72 72L167 170L210 110Z" fill="#ffeaeb" stroke="#ffeaeb"></path><path d="M72 72L99 173L167 170Z" fill="#fff6f7" stroke="#fff6f7"></path><path d="M167 170L99 173L171 278Z" fill="#ffe6e6" stroke="#ffe6e6"></path><path d="M61 321L105 419L199 371Z" fill="#ffeced" stroke="#ffeced"></path><path d="M677 400L763 267L664 288Z" fill="#ffeeef" stroke="#ffeeef"></path><path d="M698 188L726 93L562 93Z" fill="#ffe6e6" stroke="#ffe6e6"></path><path d="M813 407L763 267L677 400Z" fill="#ffe8e9" stroke="#ffe8e9"></path><path d="M803 179L726 93L698 188Z" fill="#ffeeef" stroke="#ffeeef"></path><path d="M282 521L395 600L401 518Z" fill="#ffeced" stroke="#ffeced"></path><path d="M401 518L538 600L493 463Z" fill="#ffe8e9" stroke="#ffe8e9"></path><path d="M315 0L166 0L210 110Z" fill="#fff6f7" stroke="#fff6f7"></path><path d="M61 321L199 371L171 278Z" fill="#ffe8e9" stroke="#ffe8e9"></path><path d="M185 600L286 600L282 521Z" fill="#ffe4e4" stroke="#ffe4e4"></path><path d="M282 521L286 600L395 600Z" fill="#ffeeef" stroke="#ffeeef"></path><path d="M726 93L685 0L619 0Z" fill="#fff0f1" stroke="#fff0f1"></path><path d="M99 173L61 321L171 278Z" fill="#ffeaeb" stroke="#ffeaeb"></path><path d="M395 600L538 600L401 518Z" fill="#ffeeef" stroke="#ffeeef"></path><path d="M185 600L282 521L226 462Z" fill="#fff8f9" stroke="#fff8f9"></path><path d="M626 600L705 503L633 497Z" fill="#ffe4e4" stroke="#ffe4e4"></path><path d="M633 497L705 503L677 400Z" fill="#ffeeef" stroke="#ffeeef"></path><path d="M900 200L803 179L763 267Z" fill="#fff2f3" stroke="#fff2f3"></path><path d="M763 267L803 179L698 188Z" fill="#fff8f9" stroke="#fff8f9"></path><path d="M726 93L802 0L685 0Z" fill="#fff2f3" stroke="#fff2f3"></path><path d="M166 0L72 72L210 110Z" fill="#ffe6e6" stroke="#ffe6e6"></path><path d="M99 173L0 187L61 321Z" fill="#fff4f5" stroke="#fff4f5"></path><path d="M119 0L72 72L166 0Z" fill="#fff6f7" stroke="#fff6f7"></path><path d="M538 600L626 600L633 497Z" fill="#ffeaeb" stroke="#ffeaeb"></path><path d="M767 499L677 400L705 503Z" fill="#fff4f5" stroke="#fff4f5"></path><path d="M767 499L813 407L677 400Z" fill="#fff4f5" stroke="#fff4f5"></path><path d="M98 531L185 600L226 462Z" fill="#ffe6e6" stroke="#ffe6e6"></path><path d="M98 531L226 462L105 419Z" fill="#fff4f5" stroke="#fff4f5"></path><path d="M900 200L830 134L803 179Z" fill="#ffe8e9" stroke="#ffe8e9"></path><path d="M803 179L830 134L726 93Z" fill="#ffe8e9" stroke="#ffe8e9"></path><path d="M709 600L767 499L705 503Z" fill="#fff2f3" stroke="#fff2f3"></path><path d="M72 72L0 187L99 173Z" fill="#ffeced" stroke="#ffeced"></path><path d="M61 321L0 391L105 419Z" fill="#ffe8e9" stroke="#ffe8e9"></path><path d="M0 187L0 325L61 321Z" fill="#ffe8e9" stroke="#ffe8e9"></path><path d="M0 504L98 531L105 419Z" fill="#fff6f7" stroke="#fff6f7"></path><path d="M0 325L0 391L61 321Z" fill="#ffeced" stroke="#ffeced"></path><path d="M0 600L138 600L98 531Z" fill="#ffe4e4" stroke="#ffe4e4"></path><path d="M98 531L138 600L185 600Z" fill="#ffe8e9" stroke="#ffe8e9"></path><path d="M626 600L709 600L705 503Z" fill="#ffeced" stroke="#ffeced"></path><path d="M830 134L802 0L726 93Z" fill="#fff4f5" stroke="#fff4f5"></path><path d="M72 72L0 68L0 187Z" fill="#fff2f3" stroke="#fff2f3"></path><path d="M0 0L0 68L72 72Z" fill="#ffeaeb" stroke="#ffeaeb"></path><path d="M900 319L900 200L763 267Z" fill="#fff8f9" stroke="#fff8f9"></path><path d="M830 134L900 95L802 0Z" fill="#fff2f3" stroke="#fff2f3"></path><path d="M813 407L900 319L763 267Z" fill="#fff0f1" stroke="#fff0f1"></path><path d="M900 403L900 319L813 407Z" fill="#ffe8e9" stroke="#ffe8e9"></path><path d="M900 403L813 407L900 462Z" fill="#fff8f9" stroke="#fff8f9"></path><path d="M119 0L0 0L72 72Z" fill="#ffeaeb" stroke="#ffeaeb"></path><path d="M0 391L0 504L105 419Z" fill="#fff2f3" stroke="#fff2f3"></path><path d="M900 462L813 407L767 499Z" fill="#ffe6e6" stroke="#ffe6e6"></path><path d="M900 200L900 95L830 134Z" fill="#fff2f3" stroke="#fff2f3"></path><path d="M823 600L900 462L767 499Z" fill="#fff4f5" stroke="#fff4f5"></path><path d="M709 600L823 600L767 499Z" fill="#fff8f9" stroke="#fff8f9"></path><path d="M900 95L900 0L802 0Z" fill="#ffe6e6" stroke="#ffe6e6"></path><path d="M0 504L0 600L98 531Z" fill="#fff6f7" stroke="#fff6f7"></path><path d="M823 600L900 600L900 462Z" fill="#ffe8e9" stroke="#ffe8e9"></path></g></svg>