<svg id="visual" viewBox="0 0 900 600" width="900" height="600" xmlns="http://www.w3.org/2000/svg" xmlns:xlink="http://www.w3.org/1999/xlink" version="1.1"><rect width="900" height="600" fill="#f7c1c1"></rect><g><g transform="translate(638 371)"><path d="M0 -34.7L30 -17.3L30 17.3L0 34.7L-30 17.3L-30 -17.3Z" fill="#f5cdcd"></path></g><g transform="translate(376 547)"><path d="M0 -26L22.5 -13L22.5 13L0 26L-22.5 13L-22.5 -13Z" fill="#f5cdcd"></path></g><g transform="translate(714 251)"><path d="M0 -33L28.6 -16.5L28.6 16.5L0 33L-28.6 16.5L-28.6 -16.5Z" fill="#f5cdcd"></path></g><g transform="translate(384 415)"><path d="M0 -24L20.8 -12L20.8 12L0 24L-20.8 12L-20.8 -12Z" fill="#f5cdcd"></path></g><g transform="translate(653 508)"><path d="M0 -25L21.7 -12.5L21.7 12.5L0 25L-21.7 12.5L-21.7 -12.5Z" fill="#f5cdcd"></path></g><g transform="translate(440 154)"><path d="M0 -26L22.5 -13L22.5 13L0 26L-22.5 13L-22.5 -13Z" fill="#f5cdcd"></path></g><g transform="translate(560 60)"><path d="M0 -30L26 -15L26 15L0 30L-26 15L-26 -15Z" fill="#f5cdcd"></path></g><g transform="translate(437 82)"><path d="M0 -24L20.8 -12L20.8 12L0 24L-20.8 12L-20.8 -12Z" fill="#f5cdcd"></path></g><g transform="translate(102 75)"><path d="M0 -28L24.2 -14L24.2 14L0 28L-24.2 14L-24.2 -14Z" fill="#f5cdcd"></path></g><g transform="translate(786 549)"><path d="M0 -33L28.6 -16.5L28.6 16.5L0 33L-28.6 16.5L-28.6 -16.5Z" fill="#f5cdcd"></path></g><g transform="translate(200 102)"><path d="M0 -31L26.8 -15.5L26.8 15.5L0 31L-26.8 15.5L-26.8 -15.5Z" fill="#f5cdcd"></path></g><g transform="translate(70 190)"><path d="M0 -32L27.7 -16L27.7 16L0 32L-27.7 16L-27.7 -16Z" fill="#f5cdcd"></path></g></g></svg>